<?xml version="1.0" encoding="iso-8859-1"?>
<!-- Generator: Adobe Illustrator 18.1.0, SVG Export Plug-In . SVG Version: 6.00 Build 0)  -->
<!DOCTYPE svg PUBLIC "-//W3C//DTD SVG 1.1//EN" "http://www.w3.org/Graphics/SVG/1.1/DTD/svg11.dtd">
<svg version="1.1" id="Layer_1" xmlns="http://www.w3.org/2000/svg" xmlns:xlink="http://www.w3.org/1999/xlink" x="0px" y="0px"
	 viewBox="0 0 36 36" style="enable-background:new 0 0 36 36;" xml:space="preserve">
<g>
	<rect x="0" y="0" style="fill:#C2C2C2;" width="36" height="36"/>
	<path style="fill:#766053;" d="M29.999,10.557c-0.883,0.392-1.832,0.657-2.828,0.775c1.017-0.609,1.798-1.574,2.165-2.724
		c-0.95,0.564-2.004,0.975-3.126,1.195c-0.899-0.958-2.179-1.555-3.595-1.555c-2.719,0-4.924,2.205-4.924,4.924
		c0,0.387,0.044,0.762,0.127,1.122c-4.092-0.205-7.719-2.165-10.149-5.145c-0.423,0.728-0.666,1.574-0.666,2.476
		c0,1.708,0.869,3.216,2.19,4.098c-0.807-0.025-1.566-0.248-2.23-0.616v0.062c0,2.385,1.698,4.376,3.949,4.828
		c-0.413,0.112-0.849,0.174-1.297,0.174c-0.317,0-0.626-0.032-0.926-0.09c0.626,1.957,2.444,3.379,4.599,3.42
		c-1.684,1.32-3.807,2.108-6.115,2.108c-0.397,0-0.788-0.024-1.174-0.069c2.179,1.396,4.767,2.211,7.549,2.211
		c9.056,0,14.008-7.501,14.008-14.009c0-0.213-0.006-0.425-0.014-0.638C28.504,12.412,29.338,11.545,29.999,10.557z"/>
</g>
</svg>
