<?xml version="1.0" encoding="iso-8859-1"?>
<!-- Generator: Adobe Illustrator 18.1.0, SVG Export Plug-In . SVG Version: 6.00 Build 0)  -->
<!DOCTYPE svg PUBLIC "-//W3C//DTD SVG 1.1//EN" "http://www.w3.org/Graphics/SVG/1.1/DTD/svg11.dtd">
<svg version="1.1" id="Layer_1" xmlns="http://www.w3.org/2000/svg" xmlns:xlink="http://www.w3.org/1999/xlink" x="0px" y="0px"
	 viewBox="0 0 36 36" style="enable-background:new 0 0 36 36;" xml:space="preserve">
<g>
	<rect x="0" y="0" style="fill:#C2C2C2;" width="36" height="36"/>
	<path style="fill:#766053;" d="M17.427,5.642c0.226,0.14,0.478,0.343,0.76,0.612c0.27,0.28,0.534,0.625,0.793,1.032
		c0.248,0.385,0.468,0.839,0.66,1.364c0.158,0.524,0.236,1.137,0.236,1.837c-0.02,1.282-0.304,2.308-0.85,3.079
		c-0.266,0.373-0.55,0.717-0.849,1.032c-0.332,0.314-0.684,0.635-1.057,0.962c-0.214,0.221-0.411,0.472-0.593,0.752
		c-0.213,0.292-0.32,0.629-0.32,1.014c0,0.375,0.11,0.683,0.329,0.928c0.186,0.234,0.367,0.438,0.543,0.613l1.217,0.997
		c0.756,0.62,1.418,1.299,1.988,2.046c0.536,0.759,0.816,1.749,0.84,2.973c0,1.738-0.768,3.276-2.303,4.619
		c-1.589,1.388-3.886,2.104-6.887,2.151c-2.512-0.023-4.387-0.559-5.626-1.605c-1.249-0.979-1.875-2.148-1.875-3.51
		c0-0.663,0.202-1.403,0.611-2.218c0.393-0.814,1.108-1.53,2.143-2.147c1.16-0.662,2.38-1.106,3.659-1.327
		c1.266-0.185,2.317-0.291,3.154-0.314c-0.259-0.341-0.489-0.703-0.691-1.09c-0.236-0.375-0.353-0.827-0.353-1.353
		c0-0.317,0.044-0.582,0.134-0.792c0.079-0.224,0.153-0.427,0.219-0.616c-0.407,0.046-0.792,0.07-1.152,0.07
		c-1.91-0.024-3.364-0.624-4.365-1.801c-1.049-1.097-1.573-2.374-1.573-3.83c0-1.762,0.742-3.358,2.228-4.793
		c1.019-0.839,2.078-1.386,3.177-1.644c1.088-0.222,2.108-0.332,3.058-0.332h7.171l-2.215,1.293H17.427z M18.811,26.283
		c0-0.911-0.296-1.703-0.89-2.379c-0.629-0.641-1.61-1.428-2.946-2.363c-0.229-0.024-0.497-0.035-0.805-0.035
		c-0.182-0.022-0.651,0-1.404,0.07c-0.741,0.105-1.502,0.274-2.278,0.508c-0.183,0.07-0.439,0.176-0.769,0.316
		c-0.331,0.151-0.668,0.367-1.011,0.647c-0.331,0.291-0.611,0.653-0.839,1.085c-0.264,0.455-0.393,1.004-0.393,1.645
		c0,1.26,0.569,2.298,1.711,3.114c1.086,0.816,2.569,1.236,4.453,1.26c1.69-0.024,2.981-0.397,3.87-1.12
		C18.378,28.318,18.811,27.403,18.811,26.283z M13.812,15.772c0.944-0.035,1.73-0.375,2.36-1.018
		c0.304-0.455,0.499-0.923,0.585-1.402c0.052-0.48,0.079-0.881,0.079-1.21c0-1.413-0.362-2.839-1.085-4.276
		c-0.34-0.689-0.786-1.25-1.339-1.682c-0.566-0.407-1.216-0.624-1.95-0.648c-0.972,0.024-1.779,0.415-2.424,1.174
		C9.495,7.505,9.234,8.393,9.259,9.375c0,1.297,0.378,2.645,1.137,4.048c0.368,0.654,0.841,1.208,1.423,1.664
		C12.401,15.544,13.065,15.772,13.812,15.772z"/>
	<polygon style="fill:#766053;" points="31.567,8.265 27.804,8.265 27.804,4.502 25.981,4.502 25.981,8.265 22.219,8.265 
		22.219,10.088 25.981,10.088 25.981,13.85 27.804,13.85 27.804,10.088 31.567,10.088 	"/>
</g>
</svg>
