<?xml version="1.0" encoding="iso-8859-1"?>
<!-- Generator: Adobe Illustrator 18.1.0, SVG Export Plug-In . SVG Version: 6.00 Build 0)  -->
<!DOCTYPE svg PUBLIC "-//W3C//DTD SVG 1.1//EN" "http://www.w3.org/Graphics/SVG/1.1/DTD/svg11.dtd">
<svg version="1.1" id="Layer_1" xmlns="http://www.w3.org/2000/svg" xmlns:xlink="http://www.w3.org/1999/xlink" x="0px" y="0px"
	 viewBox="0 0 36 36" style="enable-background:new 0 0 36 36;" xml:space="preserve">
<g>
	<rect x="0" y="0" style="fill:#C2C2C2;" width="36" height="36"/>
	<path style="fill:#766053;" d="M9.189,6.146h17.623c1.674,0,3.043,1.369,3.043,3.043v17.623c0,1.674-1.369,3.042-3.043,3.042H9.189
		c-1.674,0-3.044-1.368-3.044-3.042V9.189C6.145,7.515,7.515,6.146,9.189,6.146z M23.418,8.779c-0.588,0-1.068,0.481-1.068,1.069
		v2.554c0,0.588,0.48,1.068,1.068,1.068h2.68c0.587,0,1.067-0.48,1.067-1.068V9.848c0-0.588-0.48-1.069-1.067-1.069H23.418z
		 M27.175,16.172h-2.086c0.198,0.646,0.305,1.327,0.305,2.036c0,3.942-3.301,7.14-7.371,7.14c-4.07,0-7.37-3.198-7.37-7.14
		c0-0.708,0.108-1.39,0.305-2.036H8.781v10.016c0,0.519,0.423,0.941,0.942,0.941h16.511c0.519,0,0.942-0.422,0.942-0.941V16.172z
		 M18.022,13.335c-2.629,0-4.761,2.065-4.761,4.615c0,2.547,2.132,4.614,4.761,4.614c2.63,0,4.762-2.067,4.762-4.614
		C22.785,15.4,20.653,13.335,18.022,13.335z"/>
</g>
</svg>
